<?xml version="1.0" standalone="no"?>
<!DOCTYPE svg PUBLIC "-//W3C//DTD SVG 20010904//EN"
 "http://www.w3.org/TR/2001/REC-SVG-20010904/DTD/svg10.dtd">
<svg version="1.0" xmlns="http://www.w3.org/2000/svg"
 width="700.000000pt" height="700.000000pt" viewBox="0 0 700.000000 700.000000"
 preserveAspectRatio="xMidYMid meet">
<metadata>
Created by potrace 1.14, written by Peter Selinger 2001-2017
</metadata>
<g transform="translate(0.000000,700.000000) scale(0.100000,-0.100000)"
fill="#000000" stroke="none">
<path d="M1194 6990 c-621 -82 -1106 -571 -1184 -1192 -14 -114 -14 -4482 0
-4596 39 -307 175 -586 391 -800 185 -184 401 -304 666 -370 l108 -27 2255 -3
c1472 -2 2288 1 2350 7 438 47 821 299 1044 686 58 102 118 261 148 395 l23
105 0 2305 0 2305 -23 105 c-62 276 -186 504 -381 696 -186 185 -392 296 -676
366 l-90 22 -2285 2 c-1257 1 -2312 -2 -2346 -6z m1106 -1920 c302 -23 537
-95 739 -227 275 -179 430 -444 463 -791 52 -543 -226 -982 -736 -1161 -218
-77 -446 -100 -978 -101 l-288 0 0 -435 0 -435 -360 0 -360 0 0 1580 0 1580
693 0 c380 0 753 -5 827 -10z m2345 -1066 c138 -190 255 -350 262 -356 9 -7
83 85 277 346 l265 356 366 0 c201 0 365 -2 365 -5 0 -3 -200 -268 -445 -590
-245 -322 -445 -589 -445 -594 0 -5 199 -272 442 -593 242 -321 452 -598 466
-615 l24 -33 -394 0 -395 0 -268 375 -267 376 -107 -143 c-58 -79 -184 -248
-278 -376 l-173 -232 -375 0 c-206 0 -375 2 -375 4 0 3 205 274 456 603 251
329 459 604 461 611 3 7 -196 280 -441 607 -245 327 -446 597 -446 600 0 3
174 5 388 5 l387 -1 250 -345z"/>
<path d="M1500 3935 l0 -557 383 5 c402 5 443 9 569 57 233 87 352 305 318
578 -31 242 -168 387 -428 448 -53 13 -147 17 -454 21 l-388 5 0 -557z"/>
</g>
</svg>
