<svg xmlns="http://www.w3.org/2000/svg" version="1.1" xmlns:xlink="http://www.w3.org/1999/xlink" xmlns:svgjs="http://svgjs.com/svgjs" width="512" height="512"><svg width="512" height="512" viewBox="0 0 512 512" version="1.1" id="SvgjsSvg1004" inkscape:version="1.1.2 (0a00cf5339, 2022-02-04, custom)" sodipodi:docname="favicon.svg" xmlns:inkscape="http://www.inkscape.org/namespaces/inkscape" xmlns:sodipodi="http://sodipodi.sourceforge.net/DTD/sodipodi-0.dtd" xmlns="http://www.w3.org/2000/svg" xmlns:svg="http://www.w3.org/2000/svg">
  <sodipodi:namedview id="SvgjsSodipodi:namedview1003" pagecolor="#505050" bordercolor="#ffffff" borderopacity="1" inkscape:pageshadow="0" inkscape:pageopacity="0" inkscape:pagecheckerboard="1" inkscape:document-units="px" showgrid="false" inkscape:zoom="1.6074219" inkscape:cx="223.339" inkscape:cy="256.93317" inkscape:window-width="1920" inkscape:window-height="1009" inkscape:window-x="-8" inkscape:window-y="-8" inkscape:window-maximized="1" inkscape:current-layer="layer1"></sodipodi:namedview>
  <defs id="SvgjsDefs1002"></defs>
  <g inkscape:label="Layer 1" inkscape:groupmode="layer" id="SvgjsG1001">
    <path id="SvgjsPath1000" style="font-weight:bold;font-size:262.295px;line-height:1.25;font-family:'Brush Script Std';-inkscape-font-specification:'Brush Script Std Bold';text-align:center;text-anchor:middle;stroke-width:5.2459" d="M 313.50781 157.65625 C 311.8029 157.7874 309.50829 158.31243 306.62305 159.23047 C 302.95092 160.27965 298.84137 161.76596 294.29492 163.68945 C 289.74848 165.43809 285.55207 167.18496 281.70508 168.93359 C 277.85808 170.50736 274.18672 172.08248 270.68945 173.65625 C 267.36705 175.23002 265.61822 176.01562 265.44336 176.01562 L 235.80273 189.65625 L 235.2793 189.13086 C 244.54706 181.08715 249.17969 176.01633 249.17969 173.91797 C 249.17969 172.16934 248.13156 171.29492 246.0332 171.29492 C 244.6343 171.29492 242.44729 172.51871 239.47461 174.9668 C 236.50193 177.06516 233.88064 178.90084 231.60742 180.47461 C 229.50906 182.04838 227.67143 183.44783 226.09766 184.67188 C 224.69875 185.72105 223.3881 186.68233 222.16406 187.55664 C 221.11488 188.43096 220.24047 189.13166 219.54102 189.65625 C 219.01642 190.00598 218.40453 190.53102 217.70508 191.23047 C 217.18049 191.75506 216.83112 192.10444 216.65625 192.2793 L 216.13086 193.06641 C 215.78113 193.59099 215.51861 193.94037 215.34375 194.11523 C 214.46943 195.16441 212.19752 205.48171 208.52539 225.06641 C 207.82594 228.03908 208.08846 230.3998 209.3125 232.14844 C 210.71141 233.89707 212.54709 234.76953 214.82031 234.76953 C 217.2684 234.76953 219.01723 234.68267 220.06641 234.50781 C 221.11559 234.33295 222.33937 233.98357 223.73828 233.45898 C 225.13719 232.75953 227.4091 231.53574 230.55664 229.78711 C 233.70418 227.86361 237.55121 225.67856 242.09766 223.23047 C 246.6441 220.78238 253.72626 217.19592 263.34375 212.47461 C 273.1361 207.57844 284.15214 202.2451 296.39258 196.47461 C 300.5893 194.37625 303.30135 193.32813 304.52539 193.32812 C 312.5691 193.32812 306.44821 211.51319 286.16406 247.88477 L 231.34375 317.13086 C 231.51862 317.65545 232.04366 319.31742 232.91797 322.11523 C 233.79229 324.73819 234.49104 326.83639 235.01562 328.41016 C 235.71508 329.80906 236.6783 331.82041 237.90234 334.44336 C 239.12638 337.06631 240.26331 339.0757 241.3125 340.47461 C 242.36168 341.87352 243.67233 343.09926 245.24609 344.14844 C 246.99473 345.37248 248.74355 345.98437 250.49219 345.98438 C 251.36651 345.98437 252.24092 345.89557 253.11523 345.7207 C 253.98955 345.54584 254.86397 345.19647 255.73828 344.67188 C 256.78746 344.14729 257.57306 343.62225 258.09766 343.09766 C 258.79711 342.74793 259.58467 342.13603 260.45898 341.26172 C 261.50816 340.3874 262.20691 339.77551 262.55664 339.42578 C 263.08123 338.90119 263.78194 338.02678 264.65625 336.80273 C 265.70543 335.57869 266.31732 334.79309 266.49219 334.44336 C 266.84191 334.09363 267.45381 333.30608 268.32812 332.08203 C 269.20244 330.85799 269.72748 330.15924 269.90234 329.98438 L 309.24609 277 L 372.19727 208.80273 C 375.34481 205.1306 378.0549 203.29492 380.32812 203.29492 C 381.37731 203.29492 382.07605 203.6443 382.42578 204.34375 C 382.95037 205.0432 382.95037 206.26699 382.42578 208.01562 C 382.07605 209.76426 381.20164 211.95127 379.80273 214.57422 C 370.88471 231.71083 356.72233 253.04417 337.3125 278.57422 L 319.47461 301.91797 C 312.48008 311.18572 308.98438 318.09223 308.98438 322.63867 C 308.98437 328.05944 310.11936 333.83096 312.39258 339.95117 C 314.84066 346.07139 318.33832 349.13086 322.88477 349.13086 C 327.78094 349.13086 335.47499 342.48688 345.9668 329.19727 C 356.28373 316.25738 364.93906 305.67756 371.93359 297.45898 C 378.92813 289.06554 386.79785 280.67274 395.54102 272.2793 C 404.28418 263.88586 411.36634 257.32874 416.78711 252.60742 C 422.20787 247.88612 432.00013 239.49135 446.16406 227.42578 L 446.68945 227.95117 C 446.51459 228.12604 443.71569 231.71054 438.29492 238.70508 C 432.87416 245.52474 429.46531 249.98367 428.06641 252.08203 C 426.6675 254.18039 423.60607 258.46365 418.88477 264.93359 C 414.33832 271.40354 411.10319 276.47631 409.17969 280.14844 L 402.36133 293.78711 C 399.56351 299.38274 397.63902 304.54041 396.58984 309.26172 C 395.54066 313.80817 395.01562 318.26709 395.01562 322.63867 C 395.01562 331.38184 396.85326 338.81337 400.52539 344.93359 C 404.19752 351.22867 410.05394 354.37695 418.09766 354.37695 C 428.93918 354.37695 445.02799 346.33352 466.36133 330.24609 C 487.69465 313.9838 500.02135 301.13207 503.34375 291.68945 L 502.29492 281.7207 C 486.03264 297.4584 472.4802 309.0883 461.63867 316.60742 C 450.79715 324.12654 443.27875 327.88477 439.08203 327.88477 C 436.28421 327.88477 434.01035 326.57412 432.26172 323.95117 C 430.68795 321.15336 429.90234 318.18074 429.90234 315.0332 C 429.90234 299.82009 439.95712 279.97305 460.06641 255.49219 L 500.7207 205.91797 C 508.23983 196.47535 512 190.35445 512 187.55664 C 512 184.4091 509.81495 179.86332 505.44336 173.91797 C 501.07178 167.97262 497.22475 165 493.90234 165 C 493.02803 165 492.06481 165.17566 491.01562 165.52539 C 490.14131 165.87512 489.18004 166.48701 488.13086 167.36133 C 487.08168 168.06078 486.20727 168.67268 485.50781 169.19727 C 484.80836 169.72186 483.84709 170.50746 482.62305 171.55664 C 481.57387 172.43095 480.87512 173.04285 480.52539 173.39258 C 470.38332 181.43629 459.89035 190.18043 449.04883 199.62305 C 438.20729 208.89081 426.40369 219.20811 413.63867 230.57422 C 401.04851 241.94034 391.08254 250.77133 383.73828 257.06641 L 383.21289 256.54102 C 383.73748 255.6667 386.36072 251.81967 391.08203 245 C 395.80334 238.00547 399.38785 232.40961 401.83594 228.21289 C 404.45889 224.01617 407.60717 218.68284 411.2793 212.21289 C 414.95143 205.74295 417.66152 199.97338 419.41016 194.90234 C 421.33365 189.83131 422.29492 185.45924 422.29492 181.78711 C 422.29492 175.6669 420.02106 171.12112 415.47461 168.14844 C 411.10303 165.0009 406.99543 163.51459 403.14844 163.68945 C 394.92986 163.86432 380.67672 173.56777 360.39258 192.80273 L 318.68945 233.19727 L 318.16406 232.67188 C 318.51379 231.27297 321.31074 224.1908 326.55664 211.42578 C 331.80254 198.48589 334.42578 190.35561 334.42578 187.0332 C 334.42578 184.23539 333.37766 180.9134 331.2793 177.06641 L 324.98438 166.04883 C 324.80952 165.6991 324.37133 165.00035 323.67188 163.95117 C 323.14728 162.90199 322.79791 162.20129 322.62305 161.85156 C 322.44818 161.50184 322.01195 160.97875 321.3125 160.2793 C 320.78791 159.57984 320.26287 159.14166 319.73828 158.9668 C 319.21369 158.61707 318.51299 158.35455 317.63867 158.17969 C 316.93922 157.82996 316.06481 157.65625 315.01562 157.65625 C 314.57847 157.61253 314.07612 157.61253 313.50781 157.65625 z M 117.76953 159.23047 C 104.13019 159.23047 88.917741 160.97734 72.130859 164.47461 C 55.518842 167.79702 41.005141 172.16908 28.589844 177.58984 C 21.420447 180.91225 15.824592 184.4099 11.802734 188.08203 C 7.955741 191.5793 5.2456451 196.56326 3.671875 203.0332 C 1.2237882 213.35014 0 219.38223 0 221.13086 C -1.1842379e-15 227.25108 3.3219899 230.31055 9.9667969 230.31055 C 14.688107 230.31055 22.295309 228.73738 32.787109 225.58984 C 43.453773 222.4423 50.360273 220.60662 53.507812 220.08203 C 58.928576 219.55744 61.638672 217.98428 61.638672 215.36133 C 61.638672 213.43783 56.91723 212.47461 47.474609 212.47461 L 40.392578 212.47461 L 40.392578 211.95117 C 56.480005 205.83095 75.278918 201.72141 96.787109 199.62305 L 34.097656 277.78711 C 28.851756 284.25705 24.831016 289.50353 22.033203 293.52539 C 19.23539 297.54724 16.34963 302.96744 13.376953 309.78711 C 10.404277 316.60678 8.9179688 322.98824 8.9179688 328.93359 C 8.9179687 336.10299 10.929315 340.73758 14.951172 342.83594 C 18.448439 344.75943 25.966832 345.7207 37.507812 345.7207 C 53.59524 345.7207 72.042825 342.83689 92.851562 337.06641 C 113.83517 331.29591 131.49714 324.38746 145.83594 316.34375 C 163.49714 306.37654 178.27336 294.04985 190.16406 279.36133 C 202.05477 264.6728 208 248.58399 208 231.09766 C 208 219.38182 205.63928 208.27891 200.91797 197.78711 C 196.37152 187.29531 189.55188 179.07621 180.45898 173.13086 C 165.94532 163.8631 145.04821 159.23047 117.76953 159.23047 z M 111.47461 198.57422 C 112.34893 198.57422 113.74838 198.66107 115.67188 198.83594 C 125.46422 199.36052 133.07142 199.97242 138.49219 200.67188 C 144.08781 201.37133 151.51936 202.85763 160.78711 205.13086 C 170.05487 207.22922 177.04822 210.81373 181.76953 215.88477 C 186.49084 220.78094 188.85156 226.98869 188.85156 234.50781 C 188.85156 247.27283 182.90633 259.95085 171.01562 272.54102 C 159.12492 284.95631 140.32796 295.70984 114.62305 304.80273 C 91.890814 312.49672 71.781257 316.25689 54.294922 316.08203 C 46.251209 315.90716 41.267247 314.334 39.34375 311.36133 C 37.24539 306.98974 39.081072 301.04451 44.851562 293.52539 L 102.82031 217.98438 C 106.49244 213.0882 109.37625 206.61793 111.47461 198.57422 z "></path>
  </g>
</svg><style>@media (prefers-color-scheme: light) { :root { filter: none; } }
@media (prefers-color-scheme: dark) { :root { filter: invert(100%); } }
</style></svg>