<?xml version="1.0" encoding="UTF-8"?>
<svg version="1.1" viewBox="0 0 512 512" xmlns="http://www.w3.org/2000/svg">
  <svg width="512" height="512" version="1.1" viewBox="0 0 512 512" xmlns="http://www.w3.org/2000/svg" xmlns:inkscape="http://www.inkscape.org/namespaces/inkscape" xmlns:sodipodi="http://sodipodi.sourceforge.net/DTD/sodipodi-0.dtd" xmlns:svg="http://www.w3.org/2000/svg">
    <path d="m313.51 157.66c-1.7049 0.13115-3.9995 0.65618-6.8848 1.5742-3.6721 1.0492-7.7817 2.5355-12.328 4.459-4.5464 1.7486-8.7428 3.4955-12.59 5.2441-3.847 1.5738-7.5184 3.1489-11.016 4.7227-3.3224 1.5738-5.0712 2.3594-5.2461 2.3594l-29.641 13.641-0.52343-0.52539c9.2678-8.0437 13.9-13.115 13.9-15.213 0-1.7486-1.0481-2.623-3.1465-2.623-1.3989 0-3.5859 1.2238-6.5586 3.6719-2.9727 2.0984-5.594 3.934-7.8672 5.5078-2.0984 1.5738-3.936 2.9732-5.5098 4.1973-1.3989 1.0492-2.7096 2.0104-3.9336 2.8848-1.0492 0.87432-1.9236 1.575-2.623 2.0996-0.5246 0.34973-1.1365 0.87477-1.8359 1.5742-0.52459 0.52459-0.87396 0.87397-1.0488 1.0488l-0.52539 0.78711c-0.34973 0.52458-0.61225 0.87396-0.78711 1.0488-0.87432 1.0492-3.1462 11.366-6.8184 30.951-0.69945 2.9727-0.43693 5.3334 0.78711 7.082 1.3989 1.7486 3.2346 2.6211 5.5078 2.6211 2.4481 0 4.1969-0.08686 5.2461-0.26172s2.273-0.52424 3.6719-1.0488c1.3989-0.69945 3.6708-1.9232 6.8184-3.6719 3.1475-1.9235 6.9946-4.1086 11.541-6.5566 4.5464-2.4481 11.629-6.0346 21.246-10.756 9.7924-4.8962 20.808-10.23 33.049-16 4.1967-2.0984 6.9088-3.1465 8.1328-3.1465 8.0437 0 1.9228 18.185-18.361 54.557l-54.82 69.246c0.17487 0.52459 0.69991 2.1866 1.5742 4.9844 0.87432 2.623 1.5731 4.7212 2.0976 6.2949 0.69946 1.3989 1.6627 3.4102 2.8867 6.0332s2.361 4.6323 3.4102 6.0312c1.0492 1.3989 2.3598 2.6246 3.9336 3.6738 1.7486 1.224 3.4975 1.8359 5.2461 1.8359 0.87432-1e-5 1.7487-0.08881 2.623-0.26368 0.87432-0.17486 1.7487-0.52423 2.623-1.0488 1.0492-0.52459 1.8348-1.0496 2.3594-1.5742 0.69945-0.34973 1.487-0.96163 2.3613-1.8359 1.0492-0.87432 1.7479-1.4862 2.0977-1.8359 0.52459-0.52459 1.2253-1.399 2.0996-2.623 1.0492-1.224 1.6611-2.0096 1.8359-2.3594 0.34972-0.34973 0.96162-1.1373 1.8359-2.3613 0.87432-1.224 1.3994-1.9228 1.5742-2.0976l39.344-52.984 62.951-68.197c3.1475-3.6721 5.8576-5.5078 8.1308-5.5078 1.0492 0 1.7479 0.34938 2.0977 1.0488 0.52459 0.69945 0.52459 1.9232 0 3.6719-0.34973 1.7486-1.2241 3.9356-2.623 6.5586-8.918 17.137-23.08 38.47-42.49 64l-17.838 23.344c-6.9945 9.2678-10.49 16.174-10.49 20.721-1e-5 5.4208 1.135 11.192 3.4082 17.312 2.4481 6.1202 5.9457 9.1797 10.492 9.1797 4.8962 0 12.59-6.644 23.082-19.934 10.317-12.94 18.972-23.52 25.967-31.738 6.9945-8.3934 14.864-16.786 23.607-25.18 8.7432-8.3934 15.825-14.951 21.246-19.672 5.4208-4.7213 15.213-13.116 29.377-25.182l0.52539 0.52539c-0.17486 0.17487-2.9738 3.7594-8.3945 10.754-5.4208 6.8197-8.8296 11.279-10.229 13.377-1.3989 2.0984-4.4603 6.3816-9.1816 12.852-4.5464 6.47-7.7816 11.543-9.7051 15.215l-6.8184 13.639c-2.7978 5.5956-4.7223 10.753-5.7715 15.475-1.0492 4.5464-1.5742 9.0054-1.5742 13.377 0 8.7432 1.8376 16.175 5.5098 22.295 3.6721 6.2951 9.5286 9.4434 17.572 9.4434 10.842 0 26.93-8.0434 48.264-24.131 21.333-16.262 33.66-29.114 36.982-38.557l-1.0488-9.9688c-16.262 15.738-29.815 27.368-40.656 34.887-10.842 7.5191-18.36 11.277-22.557 11.277-2.7978 0-5.0717-1.3106-6.8203-3.9336-1.5738-2.7978-2.3594-5.7704-2.3594-8.918 0-15.213 10.055-35.06 30.164-59.541l40.654-49.574c7.5191-9.4426 11.279-15.564 11.279-18.361 0-3.1475-2.185-7.6933-6.5566-13.639-4.3716-5.9454-8.2186-8.918-11.541-8.918-0.87431 0-1.8375 0.17566-2.8867 0.52539-0.87431 0.34973-1.8356 0.96162-2.8848 1.8359-1.0492 0.69945-1.9236 1.3114-2.623 1.8359-0.69945 0.52459-1.6607 1.3102-2.8848 2.3594-1.0492 0.87431-1.7479 1.4862-2.0977 1.8359-10.142 8.0437-20.635 16.788-31.477 26.23-10.842 9.2678-22.645 19.585-35.41 30.951-12.59 11.366-22.556 20.197-29.9 26.492l-0.52539-0.52539c0.52459-0.87432 3.1478-4.7214 7.8691-11.541 4.7213-6.9945 8.3058-12.59 10.754-16.787 2.623-4.1967 5.7712-9.53 9.4434-16 3.6721-6.4699 6.3822-12.24 8.1309-17.311 1.9235-5.071 2.8848-9.4431 2.8848-13.115 0-6.1202-2.2739-10.666-6.8203-13.639-4.3716-3.1475-8.4792-4.6338-12.326-4.459-8.2186 0.17487-22.472 9.8783-42.756 29.113l-41.703 40.395-0.52539-0.52539c0.34973-1.3989 3.1467-8.4811 8.3926-21.246 5.2459-12.94 7.8691-21.07 7.8691-24.393 0-2.7978-1.0481-6.1198-3.1465-9.9668l-6.2949-11.018c-0.17486-0.34973-0.61305-1.0485-1.3125-2.0977-0.5246-1.0492-0.87397-1.7499-1.0488-2.0996-0.17487-0.34972-0.6111-0.87281-1.3106-1.5723-0.52459-0.69946-1.0496-1.1376-1.5742-1.3125-0.52459-0.34973-1.2253-0.61225-2.0996-0.78711-0.69945-0.34973-1.5739-0.52344-2.623-0.52344-0.43715-0.04372-0.9395-0.04372-1.5078 0zm-195.74 1.5742c-13.639 0-28.852 1.7469-45.639 5.2441-16.612 3.3224-31.126 7.6945-43.541 13.115-7.1694 3.3224-12.765 6.8201-16.787 10.492-3.847 3.4973-6.5571 8.4812-8.1309 14.951-2.4481 10.317-3.6719 16.349-3.6719 18.098-1.1842e-15 6.1202 3.322 9.1797 9.9668 9.1797 4.7213 0 12.329-1.5732 22.82-4.7207 10.667-3.1475 17.573-4.9832 20.721-5.5078 5.4208-0.52459 8.1309-2.0978 8.1309-4.7207 0-1.9235-4.7214-2.8867-14.164-2.8867h-7.082v-0.52344c16.087-6.1202 34.886-10.23 56.395-12.328l-62.689 78.164c-5.2459 6.4699-9.2666 11.716-12.064 15.738-2.7978 4.0218-5.6836 9.442-8.6562 16.262-2.9727 6.8197-4.459 13.201-4.459 19.146-1e-7 7.1694 2.0113 11.804 6.0332 13.902 3.4973 1.9235 11.016 2.8848 22.557 2.8848 16.087 0 34.535-2.8838 55.344-8.6543 20.984-5.7705 38.646-12.679 52.984-20.723 17.661-9.9672 32.437-22.294 44.328-36.982 11.891-14.689 17.836-30.777 17.836-48.264 0-11.716-2.3607-22.819-7.082-33.311-4.5464-10.492-11.366-18.711-20.459-24.656-14.514-9.2678-35.411-13.9-62.689-13.9zm-6.2949 39.344c0.87432 0 2.2738 0.08685 4.1973 0.26172 9.7923 0.52458 17.4 1.1365 22.82 1.8359 5.5956 0.69945 13.027 2.1858 22.295 4.459 9.2678 2.0984 16.261 5.6829 20.982 10.754 4.7213 4.8962 7.082 11.104 7.082 18.623 0 12.765-5.9452 25.443-17.836 38.033-11.891 12.415-30.688 23.169-56.393 32.262-22.732 7.694-42.842 11.454-60.328 11.279-8.0437-0.17487-13.028-1.748-14.951-4.7207-2.0984-4.3716-0.26268-10.317 5.5078-17.836l57.969-75.541c3.6721-4.8962 6.5559-11.366 8.6543-19.41z" stroke-width="5.2459" />
  </svg>
  <style>@media (prefers-color-scheme: light) { :root { filter: none; } }
  @media (prefers-color-scheme: dark) { :root { filter: invert(100%); } }</style>
</svg>