<?xml version="1.0" standalone="no"?>
<!DOCTYPE svg PUBLIC "-//W3C//DTD SVG 20010904//EN"
 "http://www.w3.org/TR/2001/REC-SVG-20010904/DTD/svg10.dtd">
<svg version="1.0" xmlns="http://www.w3.org/2000/svg"
 width="700.000000pt" height="700.000000pt" viewBox="0 0 700.000000 700.000000"
 preserveAspectRatio="xMidYMid meet">
<metadata>
Created by potrace 1.14, written by Peter Selinger 2001-2017
</metadata>
<g transform="translate(0.000000,700.000000) scale(0.100000,-0.100000)"
fill="#000000" stroke="none">
<path d="M4265 4843 c-31 -6 -209 -65 -220 -73 -5 -4 -39 -17 -75 -30 -36 -13
-69 -27 -75 -31 -5 -4 -50 -23 -99 -43 -78 -33 -302 -134 -498 -225 -36 -17
-69 -31 -73 -31 -4 0 33 40 82 88 49 49 92 98 95 110 6 22 -13 52 -33 52 -22
0 -81 -38 -225 -145 -161 -120 -191 -146 -205 -184 -10 -26 -57 -235 -65 -291
-3 -20 -11 -60 -18 -90 l-12 -55 -8 70 c-27 261 -150 502 -321 632 -281 214
-828 282 -1405 177 -47 -9 -98 -18 -115 -21 -119 -19 -388 -95 -512 -144 -215
-85 -337 -171 -391 -274 -32 -62 -90 -304 -88 -366 6 -137 104 -149 441 -53
161 45 251 68 314 79 44 8 68 21 81 46 10 17 7 21 -25 35 -22 9 -78 16 -143
18 -59 2 -109 5 -112 6 -18 6 293 99 385 115 17 2 57 10 90 16 33 6 69 12 80
14 11 1 38 5 60 8 22 4 64 9 94 13 l54 6 -34 -44 c-18 -23 -38 -48 -44 -54 -5
-6 -23 -28 -40 -49 -48 -61 -325 -408 -343 -430 -88 -105 -502 -627 -545 -688
-65 -90 -136 -233 -168 -338 -33 -106 -32 -237 1 -296 28 -50 78 -78 160 -89
103 -14 440 -6 500 11 8 2 35 6 59 9 108 13 390 80 571 138 124 39 356 131
445 176 382 193 701 482 848 770 30 59 55 110 55 115 0 4 7 31 16 60 25 88 36
159 38 235 2 66 3 69 14 44 16 -39 61 -56 131 -49 45 5 84 22 217 95 182 101
266 144 587 300 306 149 361 172 387 165 69 -18 20 -192 -147 -518 -48 -93
-94 -181 -102 -194 -8 -14 -169 -221 -358 -460 -190 -240 -360 -455 -378 -479
l-32 -43 25 -72 c30 -84 96 -223 123 -254 27 -32 82 -63 114 -63 37 0 84 21
131 58 41 34 75 77 431 557 212 287 276 365 424 525 128 138 229 247 346 374
213 231 252 274 331 354 85 86 122 102 143 64 35 -65 -227 -490 -635 -1030
-268 -355 -305 -407 -340 -482 -34 -71 -35 -154 -4 -267 38 -141 95 -202 177
-191 78 11 155 85 391 378 92 113 169 207 172 210 3 3 39 45 80 95 199 238
425 458 789 769 85 72 172 148 195 168 22 20 43 35 45 33 5 -5 -19 -41 -49
-75 -37 -41 -241 -316 -335 -450 -105 -150 -251 -438 -285 -561 -18 -64 -23
-111 -24 -199 -1 -127 2 -148 32 -232 79 -222 266 -270 537 -138 264 128 682
458 843 665 42 54 64 114 58 159 -3 22 -5 52 -5 64 -1 13 -5 22 -10 20 -5 -1
-45 -37 -88 -78 -43 -41 -112 -104 -153 -140 -41 -36 -77 -67 -80 -71 -3 -3
-43 -35 -90 -72 -47 -37 -90 -71 -97 -77 -30 -24 -183 -120 -232 -145 -30 -15
-78 -29 -107 -32 -49 -5 -55 -3 -83 24 -71 71 -67 232 11 420 17 43 35 83 40
89 4 6 20 33 34 60 50 95 234 354 298 420 6 6 25 28 41 50 17 21 66 81 110
135 72 87 147 178 215 262 14 17 52 62 84 101 169 204 240 316 233 369 -10 73
-114 225 -184 268 -45 28 -85 27 -130 -3 -42 -28 -432 -347 -503 -412 -25 -23
-74 -66 -110 -96 -35 -30 -100 -86 -145 -125 -44 -38 -93 -81 -109 -95 -16
-14 -34 -29 -40 -35 -6 -5 -51 -46 -101 -90 -49 -44 -92 -82 -95 -85 -3 -3
-43 -39 -90 -79 -47 -41 -89 -80 -95 -86 -28 -29 -146 -127 -149 -124 -2 2 38
67 90 144 84 124 194 302 296 480 81 142 141 314 139 404 -1 75 -21 121 -73
166 -64 54 -104 70 -179 70 -57 0 -76 -5 -141 -38 -95 -49 -145 -85 -328 -241
-25 -21 -137 -127 -249 -235 -403 -389 -446 -429 -449 -426 -2 2 37 106 86
232 140 353 148 386 118 471 -17 48 -143 271 -166 293 -24 24 -85 39 -125 32z
m-2579 -568 c63 -4 123 -8 132 -10 9 -1 46 -6 82 -10 36 -4 67 -8 70 -10 3 -2
24 -6 47 -10 91 -13 276 -66 339 -96 135 -64 214 -177 222 -320 17 -293 -217
-604 -611 -813 -277 -146 -674 -274 -977 -313 -36 -4 -132 -8 -215 -8 -155 0
-186 7 -229 50 -25 25 -20 98 9 158 14 29 128 185 253 348 125 162 313 407
417 543 195 253 243 325 270 407 30 93 33 98 55 94 12 -2 73 -7 136 -10z"/>
</g>
</svg>
