<?xml version="1.0" encoding="UTF-8" standalone="no"?>
<!-- Created with Inkscape (http://www.inkscape.org/) -->

<svg
   width="512.00006"
   height="74.793388"
   viewBox="0 0 512.00006 74.793388"
   version="1.1"
   id="svg5"
   inkscape:version="1.1.2 (0a00cf5339, 2022-02-04, custom)"
   sodipodi:docname="logo - v1.svg"
   xmlns:inkscape="http://www.inkscape.org/namespaces/inkscape"
   xmlns:sodipodi="http://sodipodi.sourceforge.net/DTD/sodipodi-0.dtd"
   xmlns="http://www.w3.org/2000/svg"
   xmlns:svg="http://www.w3.org/2000/svg">
  <sodipodi:namedview
     id="namedview7"
     pagecolor="#505050"
     bordercolor="#ffffff"
     borderopacity="1"
     inkscape:pageshadow="0"
     inkscape:pageopacity="0"
     inkscape:pagecheckerboard="1"
     inkscape:document-units="px"
     showgrid="false"
     inkscape:zoom="1.6074219"
     inkscape:cx="138.73147"
     inkscape:cy="58.478735"
     inkscape:window-width="1920"
     inkscape:window-height="1009"
     inkscape:window-x="-8"
     inkscape:window-y="-8"
     inkscape:window-maximized="1"
     inkscape:current-layer="layer1" />
  <defs
     id="defs2" />
  <g
     inkscape:label="Layer 1"
     inkscape:groupmode="layer"
     id="layer1"
     transform="translate(-105.52363,-197.98658)">
    <path
       id="path823"
       style="font-weight:bold;font-size:99.7079px;line-height:1.25;font-family:'Brush Script Std';-inkscape-font-specification:'Brush Script Std Bold';text-align:center;text-anchor:middle;stroke-width:1.99416"
       d="M 293.46484 0.01171875 C 292.81674 0.061575 291.94444 0.26235313 290.84766 0.61132812 C 289.45174 1.0101615 287.89038 1.5754473 286.16211 2.3066406 C 284.43384 2.971354 282.83738 3.6360612 281.375 4.3007812 C 279.91262 4.8990346 278.51694 5.4955033 277.1875 6.09375 C 275.92453 6.6919967 275.25983 6.9921875 275.19336 6.9921875 L 263.92773 12.177734 L 263.72656 11.976562 C 267.24958 8.9188558 269.01172 6.991026 269.01172 6.1933594 C 269.01172 5.528646 268.61407 5.1972656 267.81641 5.1972656 C 267.28463 5.1972656 266.45229 5.6631433 265.32227 6.59375 C 264.19224 7.39141 263.19616 8.0892533 262.33203 8.6875 C 261.53437 9.2857467 260.83653 9.8178965 260.23828 10.283203 C 259.70651 10.682036 259.20749 11.046553 258.74219 11.378906 C 258.34335 11.711266 258.01003 11.978314 257.74414 12.177734 C 257.54472 12.310674 257.31276 12.509497 257.04688 12.775391 L 256.64844 13.173828 L 256.44922 13.472656 C 256.31627 13.672076 256.21686 13.804627 256.15039 13.871094 C 255.81803 14.269927 254.95255 18.191865 253.55664 25.636719 C 253.29075 26.766745 253.39016 27.665358 253.85547 28.330078 C 254.38724 28.994798 255.08703 29.326172 255.95117 29.326172 C 256.88178 29.326172 257.54649 29.293029 257.94531 29.226562 C 258.34415 29.160089 258.80807 29.027538 259.33984 28.828125 C 259.87162 28.562238 260.7371 28.096361 261.93359 27.431641 C 263.13009 26.700447 264.59204 25.87006 266.32031 24.939453 C 268.04858 24.008846 270.74052 22.646303 274.39648 20.851562 C 278.11891 18.990342 282.30595 16.963105 286.95898 14.769531 C 288.55431 13.971871 289.58547 13.572266 290.05078 13.572266 C 293.10849 13.572266 290.78106 20.48634 283.07031 34.3125 L 262.23242 60.634766 C 262.2989 60.834179 262.49772 61.465744 262.83008 62.529297 C 263.16244 63.526377 263.42754 64.323628 263.62695 64.921875 C 263.89285 65.453648 264.25931 66.217764 264.72461 67.214844 C 265.18992 68.211924 265.62266 68.977992 266.02148 69.509766 C 266.42032 70.041539 266.91738 70.505464 267.51562 70.904297 C 268.18034 71.369604 268.84505 71.603516 269.50977 71.603516 C 269.84213 71.603516 270.17545 71.570373 270.50781 71.503906 C 270.84017 71.437433 271.17155 71.302929 271.50391 71.103516 C 271.90274 70.904096 272.20293 70.705273 272.40234 70.505859 C 272.66823 70.372913 272.96647 70.140954 273.29883 69.808594 C 273.69766 69.47624 273.96472 69.242322 274.09766 69.109375 C 274.29708 68.909962 274.56217 68.578588 274.89453 68.113281 C 275.29336 67.647981 275.52533 67.34779 275.5918 67.214844 C 275.72474 67.081897 275.95866 66.783659 276.29102 66.318359 C 276.62338 65.853053 276.82221 65.587951 276.88867 65.521484 L 291.8457 45.378906 L 315.77539 19.455078 C 316.97188 18.059171 318.0011 17.361328 318.86523 17.361328 C 319.26407 17.361328 319.53112 17.493879 319.66406 17.759766 C 319.86348 18.025652 319.86348 18.49153 319.66406 19.15625 C 319.53112 19.82097 319.1978 20.651357 318.66602 21.648438 C 315.27595 28.162684 309.89206 36.273609 302.51367 45.978516 L 295.73438 54.851562 C 293.07549 58.374576 291.74609 61.000249 291.74609 62.728516 C 291.74609 64.789149 292.17688 66.982074 293.04102 69.308594 C 293.97162 71.635107 295.30102 72.798828 297.0293 72.798828 C 298.89051 72.798828 301.81637 70.27257 305.80469 65.220703 C 309.72653 60.301783 313.0169 56.28043 315.67578 53.15625 C 318.33465 49.965597 321.32484 46.774638 324.64844 43.583984 C 327.97203 40.393331 330.66398 37.902169 332.72461 36.107422 C 334.78524 34.312682 338.50835 31.121716 343.89258 26.535156 L 344.0918 26.734375 C 344.02532 26.800848 342.96102 28.163386 340.90039 30.822266 C 338.83976 33.414666 337.54545 35.110536 337.01367 35.908203 C 336.4819 36.705863 335.31818 38.333502 333.52344 40.792969 C 331.79517 43.252429 330.56518 45.180265 329.83398 46.576172 C 329.16926 47.905612 328.30574 49.634619 327.24219 51.761719 C 326.17864 53.888825 325.44571 55.849791 325.04688 57.644531 C 324.64804 59.372805 324.44922 61.066722 324.44922 62.728516 C 324.44922 66.052116 325.14706 68.876605 326.54297 71.203125 C 327.93888 73.596112 330.1669 74.792969 333.22461 74.792969 C 337.34587 74.792969 343.46074 71.736514 351.57031 65.621094 C 355.97359 62.264499 359.33008 59.303243 361.71484 56.710938 C 361.53248 57.852656 361.44141 58.995 361.44141 60.136719 C 361.44141 62.529705 362.13924 64.788909 363.53516 66.916016 C 364.93107 68.976642 366.75949 70.007812 369.01953 70.007812 C 370.68133 70.007812 372.47466 69.309976 374.40234 67.914062 C 376.33003 66.451682 378.45864 64.49071 380.78516 62.03125 C 383.11167 59.57179 384.54049 58.109838 385.07227 57.644531 L 385.27148 57.84375 C 383.87558 61.499703 383.17773 64.291063 383.17773 66.21875 C 383.17773 68.01349 383.70989 69.541721 384.77344 70.804688 C 385.83699 72.134128 387.26581 72.798828 389.06055 72.798828 C 390.25704 72.798828 391.58644 72.467454 393.04883 71.802734 C 394.51121 71.204488 395.84062 70.539787 397.03711 69.808594 C 398.30008 69.010934 399.79516 67.880349 401.52344 66.417969 C 403.2517 64.889109 404.54797 63.725394 405.41211 62.927734 C 405.58846 62.764949 405.97598 62.391319 406.18555 62.195312 C 407.21635 64.826355 408.97811 66.970435 411.49414 68.611328 C 414.55185 70.605488 417.87536 71.669794 421.46484 71.802734 C 425.05433 72.002154 429.10881 70.606474 433.62891 67.615234 C 437.74125 64.833361 441.63251 61.661534 445.30469 58.109375 C 445.23996 58.752506 445.19531 59.395882 445.19531 60.037109 C 445.19531 62.961876 445.92629 65.686957 447.38867 68.212891 C 448.91753 70.672351 451.04614 71.902344 453.77148 71.902344 C 457.16155 71.902344 460.71702 70.440392 464.43945 67.515625 C 467.89616 64.737918 471.06181 61.638703 473.94531 58.230469 C 474.107 61.755402 475.0532 64.819933 476.80273 67.414062 C 478.79689 70.272349 481.62139 71.703125 485.27734 71.703125 C 489.46508 71.703125 493.9523 70.04039 498.73828 66.716797 C 503.59073 63.393197 508.01169 59.603809 512 55.349609 L 510.80273 51.460938 C 507.74502 53.787458 505.41955 55.5496 503.82422 56.746094 C 502.29537 57.876114 499.96793 59.205515 496.84375 60.734375 C 493.78604 62.196755 491.0941 62.927734 488.76758 62.927734 C 486.37459 62.927734 484.51303 62.362442 483.18359 61.232422 C 481.85415 60.102395 481.18945 58.872409 481.18945 57.542969 C 481.18945 55.548815 482.51885 53.589796 485.17773 51.662109 L 493.55469 45.378906 C 493.62116 46.508926 493.9194 47.540096 494.45117 48.470703 C 495.04942 49.334843 495.87981 49.767578 496.94336 49.767578 C 498.47221 49.767578 500.60083 48.204258 503.32617 45.080078 C 506.118 41.955891 507.51367 39.131402 507.51367 36.605469 C 507.51367 33.547762 506.01663 32.019531 503.02539 32.019531 C 500.49946 32.019531 497.27732 32.98247 493.35547 34.910156 C 489.43363 36.77137 486.11012 38.732335 483.38477 40.792969 C 479.79529 43.451842 477.30216 45.878692 475.90625 48.072266 C 474.8467 49.767544 474.21705 52.041679 474.00195 54.876953 L 473.71289 53.65625 C 473.18112 54.055083 472.14995 54.885471 470.62109 56.148438 C 469.09224 57.344931 467.82911 58.274733 466.83203 58.939453 C 465.90142 59.604173 464.70457 60.268874 463.24219 60.933594 C 461.84628 61.53184 460.51687 61.832031 459.25391 61.832031 C 454.93323 61.832031 453.17304 59.736555 453.9707 55.548828 C 456.829 53.621141 459.88546 50.89606 463.14258 47.373047 C 466.3997 43.850034 468.0293 40.992401 468.0293 38.798828 C 468.0293 36.937615 466.56734 36.007812 463.64258 36.007812 C 461.58195 36.007812 459.12197 37.136438 456.26367 39.396484 C 453.40538 41.656524 450.84598 44.714939 448.58594 48.570312 C 447.31756 50.73402 446.41787 52.886526 445.86133 55.029297 L 445.39453 53.255859 L 439.41211 57.84375 C 437.285 59.439077 435.65736 60.600845 434.52734 61.332031 C 433.46379 61.996751 431.9687 62.595173 430.04102 63.126953 C 428.1798 63.658726 426.25197 63.758141 424.25781 63.425781 C 432.89916 58.174501 437.21875 52.12591 437.21875 45.279297 C 437.21875 43.617497 436.92051 41.490837 436.32227 38.898438 C 435.72401 36.306031 435.39069 34.577031 435.32422 33.712891 C 435.19128 32.250511 434.8599 31.287566 434.32812 30.822266 C 433.86283 30.290486 432.89793 30.025391 431.43555 30.025391 C 429.77375 30.025391 428.44435 30.656955 427.44727 31.919922 C 426.45019 33.182889 425.8849 34.711113 425.75195 36.505859 L 404.11523 56.347656 C 402.98313 57.479757 402.26232 58.389003 401.93359 59.085938 C 399.29711 60.709802 397.3586 61.533203 396.13867 61.533203 C 394.47688 61.533203 393.64648 60.800271 393.64648 59.337891 C 393.64648 57.343731 394.81021 54.819432 397.13672 51.761719 C 399.46324 48.637539 401.72244 46.078138 403.91602 44.083984 C 406.77431 41.558051 408.13685 39.530813 408.00391 38.001953 C 407.73802 34.346 406.9739 32.517578 405.71094 32.517578 C 405.24564 32.517578 404.51466 32.848952 403.51758 33.513672 C 402.5205 34.111919 401.35678 34.977402 400.02734 36.107422 C 398.76438 37.170975 397.63575 38.133914 396.63867 38.998047 C 395.70807 39.862187 394.61062 40.89335 393.34766 42.089844 C 392.08468 43.21987 391.41998 43.818299 391.35352 43.884766 L 381.48242 52.757812 C 379.28885 54.751973 376.9965 56.447837 374.60352 57.84375 C 372.21052 59.173183 370.51466 59.837891 369.51758 59.837891 C 368.9858 59.837891 368.7207 59.33887 368.7207 58.341797 C 368.7207 56.41411 369.18463 54.817654 370.11523 53.554688 C 371.04584 52.291721 372.40839 51.030545 374.20312 49.767578 C 376.46317 48.172251 378.98942 45.778544 381.78125 42.587891 C 382.51244 41.989644 383.34283 41.159256 384.27344 40.095703 C 385.20405 38.965683 385.70306 38.033928 385.76953 37.302734 C 385.836 36.770961 385.73659 36.340172 385.4707 36.007812 C 385.20482 35.608973 384.77208 35.37506 384.17383 35.308594 C 383.57558 35.175654 383.04538 35.109375 382.58008 35.109375 C 382.11477 35.109375 381.54949 35.142518 380.88477 35.208984 L 379.6875 35.208984 C 377.89276 35.208984 376.43081 35.575447 375.30078 36.306641 C 371.77777 38.633161 368.58681 42.056085 365.72852 46.576172 C 365.55892 46.844365 365.41148 47.112666 365.25195 47.380859 L 365.23047 47.173828 C 359.04858 53.156301 353.89665 57.577254 349.77539 60.435547 C 345.65413 63.29384 342.7965 64.722656 341.20117 64.722656 C 340.13762 64.722656 339.27214 64.223642 338.60742 63.226562 C 338.00917 62.163016 337.71094 61.034391 337.71094 59.837891 C 337.71094 54.054837 341.53346 46.509198 349.17773 37.203125 L 364.63086 18.359375 C 367.48915 14.769888 368.91992 12.44246 368.91992 11.378906 C 368.91992 10.182413 368.08758 8.453406 366.42578 6.1933594 C 364.76398 3.9333194 363.30203 2.8046875 362.03906 2.8046875 C 361.7067 2.8046875 361.34219 2.8709662 360.94336 3.0039062 C 360.61101 3.1368529 360.24454 3.3688119 359.8457 3.7011719 C 359.44687 3.9670585 359.1155 4.2009773 358.84961 4.4003906 C 358.58372 4.5998106 358.21726 4.8980483 357.75195 5.296875 C 357.35312 5.629235 357.08802 5.861194 356.95508 5.9941406 C 353.0997 9.0518473 349.11149 12.375357 344.99023 15.964844 C 340.86897 19.487857 336.38175 23.409795 331.5293 27.730469 C 326.74332 32.051142 322.95394 35.407788 320.16211 37.800781 L 319.96289 37.601562 C 320.1623 37.269203 321.15838 35.807244 322.95312 33.214844 C 324.74787 30.555964 326.11041 28.429311 327.04102 26.833984 C 328.0381 25.238658 329.23495 23.211413 330.63086 20.751953 C 332.02677 18.292493 333.05794 16.099562 333.72266 14.171875 C 334.45384 12.244188 334.81836 10.58146 334.81836 9.1855469 C 334.81836 6.8590269 333.95483 5.13002 332.22656 4 C 330.56476 2.8035133 329.0034 2.240174 327.54102 2.3066406 C 324.41684 2.3731073 318.99786 6.0611335 311.28711 13.373047 L 295.43359 28.728516 L 295.23438 28.529297 C 295.36732 27.997524 296.43162 25.305578 298.42578 20.453125 C 300.41994 15.534205 301.41797 12.442654 301.41797 11.179688 C 301.41797 10.116134 301.01837 8.853005 300.2207 7.390625 L 297.82812 3.203125 C 297.76166 3.0701783 297.59402 2.8050833 297.32812 2.40625 C 297.12871 2.0074233 296.99615 1.7403685 296.92969 1.6074219 C 296.86321 1.4744752 296.69753 1.2756523 296.43164 1.0097656 C 296.23223 0.74387229 296.0334 0.57818542 295.83398 0.51171875 C 295.63456 0.37877208 295.36752 0.27740417 295.03516 0.2109375 C 294.76927 0.077990833 294.4379 0.01171875 294.03906 0.01171875 C 293.87288 -0.0048979167 293.68088 -0.0049 293.46484 0.01171875 z M 44.769531 0.61132812 C 39.584718 0.61132812 33.801229 1.2760288 27.419922 2.6054688 C 21.105089 3.8684354 15.586694 5.5292171 10.867188 7.5898438 C 8.1418408 8.8528104 6.0151815 10.182212 4.4863281 11.578125 C 3.0239415 12.907565 1.994731 14.802259 1.3964844 17.261719 C 0.46587771 21.183565 0 23.477858 0 24.142578 C 0 26.469091 1.2631292 27.630859 3.7890625 27.630859 C 5.5838092 27.630859 8.4745773 27.032431 12.462891 25.835938 C 16.517677 24.639444 19.14335 23.941607 20.339844 23.742188 C 22.400477 23.542774 23.431641 22.944346 23.431641 21.947266 C 23.431641 21.216079 21.636362 20.851562 18.046875 20.851562 L 15.355469 20.851562 L 15.355469 20.652344 C 21.470889 18.325824 28.616922 16.762504 36.792969 15.964844 L 12.962891 45.677734 C 10.968731 48.137201 9.4385467 50.133256 8.375 51.662109 C 7.3114467 53.190963 6.2159642 55.251343 5.0859375 57.84375 C 3.9559175 60.43615 3.390625 62.861047 3.390625 65.121094 C 3.390625 67.846447 4.1547404 69.60859 5.6835938 70.40625 C 7.0130337 71.137443 9.8706658 71.503906 14.257812 71.503906 C 20.373232 71.503906 27.386715 70.406464 35.296875 68.212891 C 43.273508 66.019317 49.986807 63.393651 55.4375 60.335938 C 62.151167 56.547038 67.768969 51.860984 72.289062 46.277344 C 72.696298 45.774289 73.063048 45.261688 73.433594 44.75 C 73.337614 45.292208 73.285156 45.834745 73.285156 46.376953 C 73.285156 47.4405 73.483979 48.204615 73.882812 48.669922 C 74.215173 49.135229 74.913009 49.40033 75.976562 49.466797 C 73.849456 52.52451 71.656524 54.951354 69.396484 56.746094 L 69.794922 61.132812 C 70.659055 60.268672 71.988463 59.071822 73.783203 57.542969 C 75.511476 55.947642 77.008518 54.518826 78.271484 53.255859 C 79.534451 51.926426 80.696212 50.431331 81.759766 48.769531 L 92.130859 46.476562 L 92.330078 46.675781 C 92.130665 46.875201 91.532236 47.539902 90.535156 48.669922 C 89.60455 49.799942 88.972985 50.564057 88.640625 50.962891 C 88.374738 51.361724 87.842589 52.092697 87.044922 53.15625 C 86.313735 54.153323 85.781579 54.985671 85.449219 55.650391 C 85.116859 56.248637 84.719213 57.045889 84.253906 58.042969 C 83.85508 58.973575 83.554889 59.903378 83.355469 60.833984 C 83.222529 61.698124 83.15625 62.596737 83.15625 63.527344 C 83.15625 65.521497 83.787815 67.31483 85.050781 68.910156 C 86.313748 70.439016 87.943347 71.203125 89.9375 71.203125 C 92.396967 71.203125 95.786749 69.442935 100.10742 65.919922 C 103.22077 63.419809 105.92444 61.00461 108.23438 58.671875 C 108.20191 59.126955 108.18359 59.582984 108.18359 60.037109 C 108.18359 62.961876 108.91457 65.686957 110.37695 68.212891 C 111.90581 70.672351 114.03247 71.902344 116.75781 71.902344 C 120.14789 71.902344 123.70335 70.440392 127.42578 67.515625 C 130.68755 64.894562 133.69588 61.991075 136.44727 58.808594 C 136.77029 61.703876 137.64659 64.342531 139.0918 66.716797 C 140.95301 69.774504 143.31358 71.302734 146.17188 71.302734 C 147.90015 71.302734 150.65837 69.840776 154.44727 66.916016 C 158.23617 63.991249 161.06066 61.464991 162.92188 59.337891 C 163.05482 59.404357 163.45442 59.704548 164.11914 60.236328 C 164.78385 60.701628 165.2166 60.999866 165.41602 61.132812 C 165.6819 61.265753 166.07955 61.433393 166.61133 61.632812 C 167.14311 61.832226 167.64212 61.931641 168.10742 61.931641 C 171.76981 61.931641 175.33931 60.281167 178.81641 56.992188 C 178.77504 57.637571 178.75515 58.285172 178.77539 58.939453 C 178.90833 62.52894 179.90636 65.620484 181.76758 68.212891 C 183.6288 70.738824 186.25446 72.001953 189.64453 72.001953 C 194.09815 72.001953 198.75107 70.339225 203.60352 67.015625 C 208.52244 63.692032 212.84398 59.869501 216.56641 55.548828 L 215.66797 51.761719 C 215.53502 51.894665 214.83719 52.457998 213.57422 53.455078 C 212.37773 54.385685 211.54733 55.017249 211.08203 55.349609 C 210.6832 55.681969 209.88595 56.313534 208.68945 57.244141 C 207.49295 58.108274 206.5612 58.739839 205.89648 59.138672 C 205.29823 59.471032 204.43471 59.970046 203.30469 60.634766 C 202.17467 61.299486 201.17664 61.798499 200.3125 62.130859 C 199.51484 62.396746 198.61817 62.661848 197.62109 62.927734 C 196.69049 63.127148 195.79382 63.226562 194.92969 63.226562 C 193.13494 63.226563 191.60476 62.82891 190.3418 62.03125 C 189.1453 61.167117 188.61315 59.870851 188.74609 58.142578 L 188.94727 55.949219 C 197.65509 53.090925 203.83623 50.032517 207.49219 46.775391 C 211.14815 43.451791 212.97656 40.327104 212.97656 37.402344 C 212.97656 34.21169 210.58285 32.617188 205.79688 32.617188 C 199.21616 32.550714 193.00188 35.308938 187.15234 40.892578 C 183.86913 44.06258 181.55223 47.371787 180.19727 50.820312 L 180.17188 50.664062 C 176.25003 53.322936 173.42553 54.652344 171.69727 54.652344 C 170.36783 54.652344 169.23725 54.219602 168.30664 53.355469 C 170.03491 50.896009 171.83019 47.905826 173.69141 44.382812 C 175.61909 40.859799 176.58203 38.234126 176.58203 36.505859 C 176.58203 34.312286 175.58595 33.214844 173.5918 33.214844 C 171.26528 33.214844 168.00805 35.973068 163.82031 41.490234 C 160.23083 46.010328 158.56809 49.932266 158.83398 53.255859 C 152.31973 59.437753 148.03328 62.529297 145.97266 62.529297 C 144.37733 62.529297 143.58008 61.233032 143.58008 58.640625 C 143.58008 57.909432 144.07714 55.948466 145.07422 52.757812 C 147.46721 50.763659 150.22738 47.839748 153.35156 43.984375 C 156.47574 40.129002 158.03711 37.203144 158.03711 35.208984 C 158.03711 33.680131 156.043 32.916016 152.05469 32.916016 C 150.72525 32.916016 148.86369 33.878954 146.4707 35.806641 C 144.07771 37.667854 141.78537 40.494303 139.5918 44.283203 C 137.81854 47.346103 136.77337 50.541701 136.43359 53.865234 C 135.86189 54.305704 134.96495 55.028614 133.60938 56.148438 C 132.08052 57.344931 130.81739 58.274733 129.82031 58.939453 C 128.88971 59.604173 127.69286 60.268874 126.23047 60.933594 C 124.83456 61.53184 123.50515 61.832031 122.24219 61.832031 C 117.92151 61.832031 116.15936 59.736555 116.95703 55.548828 C 119.81532 53.621141 122.87373 50.89606 126.13086 47.373047 C 129.38798 43.850034 131.01562 40.992401 131.01562 38.798828 C 131.01562 36.937615 129.55367 36.007812 126.62891 36.007812 C 124.56827 36.007812 122.10829 37.136438 119.25 39.396484 C 116.39171 41.656524 113.83231 44.714939 111.57227 48.570312 C 110.77582 49.928957 110.12906 51.282423 109.61328 52.632812 C 109.06661 53.091832 108.15308 53.880661 106.48828 55.349609 C 104.22823 57.277296 102.26727 58.741201 100.60547 59.738281 C 99.010142 60.668888 97.581326 61.132812 96.318359 61.132812 C 95.520693 61.132812 94.789713 60.867717 94.125 60.335938 C 93.526747 59.804164 93.226562 59.139457 93.226562 58.341797 C 93.226562 55.21761 95.819093 51.428223 101.00391 46.974609 C 102.00099 46.110469 102.73197 45.478905 103.19727 45.080078 C 103.66257 44.681245 104.09531 44.082823 104.49414 43.285156 C 104.95944 42.421023 105.19141 41.491221 105.19141 40.494141 C 104.99199 38.765874 104.19474 37.003731 102.79883 35.208984 C 102.59941 35.009564 102.2349 34.877014 101.70312 34.810547 C 101.23782 34.677607 100.43861 34.677607 99.308594 34.810547 C 98.24504 34.87702 97.248966 34.976428 96.318359 35.109375 C 95.454226 35.242315 93.992274 35.474281 91.931641 35.806641 C 89.937481 36.072527 88.274746 36.306439 86.945312 36.505859 C 87.410612 35.442306 87.642578 34.510557 87.642578 33.712891 C 87.642578 33.247591 87.443755 32.849938 87.044922 32.517578 C 86.712569 32.185218 86.312963 32.019531 85.847656 32.019531 C 84.185856 32.019531 81.661551 33.614034 78.271484 36.804688 C 77.900251 37.161071 77.55633 37.518616 77.226562 37.875 C 78.450831 34.703646 79.068359 31.391058 79.068359 27.931641 C 79.068359 23.478021 78.1717 19.255898 76.376953 15.267578 C 74.648686 11.279265 72.056149 8.1545779 68.599609 5.8945312 C 63.082436 2.3715179 55.139151 0.61132812 44.769531 0.61132812 z M 42.375 15.566406 C 42.70736 15.566406 43.23951 15.599549 43.970703 15.666016 C 47.69313 15.865436 50.585858 16.099348 52.646484 16.365234 C 54.773591 16.631121 57.59808 17.196414 61.121094 18.060547 C 64.6441 18.858214 67.30291 20.220751 69.097656 22.148438 C 70.892396 24.009651 71.789062 26.368269 71.789062 29.226562 C 71.789062 34.079016 69.529859 38.89762 65.009766 43.683594 C 60.489679 48.403107 53.343646 52.492679 43.572266 55.949219 C 34.930919 58.873979 27.285865 60.302795 20.638672 60.236328 C 17.580959 60.169855 15.688218 59.571433 14.957031 58.441406 C 14.159365 56.779613 14.857208 54.520403 17.050781 51.662109 L 39.085938 22.945312 C 40.481851 21.084099 41.57734 18.624113 42.375 15.566406 z M 136.69922 22.048828 C 134.70507 22.048828 132.74409 22.84608 130.81641 24.441406 C 128.95519 25.97026 128.02539 27.730449 128.02539 29.724609 C 128.02539 30.921103 128.38991 31.952273 129.12109 32.816406 C 129.85229 33.614073 130.81718 34.013672 132.01367 34.013672 C 134.07431 34.013672 135.90272 33.04878 137.49805 31.121094 C 139.15984 29.193407 139.99023 27.199299 139.99023 25.138672 C 139.99023 24.274532 139.65691 23.543559 138.99219 22.945312 C 138.39394 22.347066 137.62983 22.048828 136.69922 22.048828 z M 473.71289 22.048828 C 471.71873 22.048828 469.75776 22.84608 467.83008 24.441406 C 465.96886 25.97026 465.03711 27.730449 465.03711 29.724609 C 465.03711 30.921103 465.40357 31.952273 466.13477 32.816406 C 466.86596 33.614073 467.8289 34.013672 469.02539 34.013672 C 471.08602 34.013672 472.91444 33.04878 474.50977 31.121094 C 476.17156 29.193407 477.00195 27.199299 477.00195 25.138672 C 477.00195 24.274532 476.67058 23.543559 476.00586 22.945312 C 475.40761 22.347066 474.6435 22.048828 473.71289 22.048828 z M 203.28516 38.351562 C 203.89586 38.300667 204.20117 38.681813 204.20117 39.496094 C 204.26765 40.559647 202.80569 42.421198 199.81445 45.080078 C 196.88969 47.738951 193.46677 49.73306 189.54492 51.0625 C 190.87436 47.871847 192.80219 45.146765 195.32812 42.886719 C 197.85406 40.560205 200.41345 39.065111 203.00586 38.400391 C 203.10557 38.375463 203.19791 38.358833 203.28516 38.351562 z M 425.85156 41.890625 C 426.31687 44.416558 426.74961 47.14164 427.14844 50.066406 C 427.0155 52.858226 426.45021 54.951743 425.45312 56.347656 C 424.45605 57.677096 422.39566 59.304735 419.27148 61.232422 C 418.40735 60.035922 417.70951 59.139262 417.17773 58.541016 C 416.64596 57.876296 415.8487 57.211595 414.78516 56.546875 C 413.86387 55.913487 412.91648 55.531082 411.94531 55.396484 L 411.88672 54.980469 L 425.85156 41.890625 z "
       transform="translate(105.52363,197.98658)" />
  </g>
</svg>
