<?xml version="1.0" encoding="UTF-8" standalone="no"?>
<!-- Created with Inkscape (http://www.inkscape.org/) -->

<svg
   width="300"
   height="240.43945"
   viewBox="0 0 79.375003 63.616274"
   version="1.1"
   id="svg5"
   inkscape:version="1.1.2 (0a00cf5339, 2022-02-04, custom)"
   sodipodi:docname="Walker Media - Bar Logo - V.2 - White.svg"
   xmlns:inkscape="http://www.inkscape.org/namespaces/inkscape"
   xmlns:sodipodi="http://sodipodi.sourceforge.net/DTD/sodipodi-0.dtd"
   xmlns="http://www.w3.org/2000/svg"
   xmlns:svg="http://www.w3.org/2000/svg">
  <sodipodi:namedview
     id="namedview7"
     pagecolor="#505050"
     bordercolor="#ffffff"
     borderopacity="1"
     inkscape:pageshadow="0"
     inkscape:pageopacity="0"
     inkscape:pagecheckerboard="1"
     inkscape:document-units="px"
     showgrid="false"
     inkscape:zoom="2.1517038"
     inkscape:cx="116.41937"
     inkscape:cy="108.28628"
     inkscape:window-width="1920"
     inkscape:window-height="1009"
     inkscape:window-x="-8"
     inkscape:window-y="-8"
     inkscape:window-maximized="1"
     inkscape:current-layer="layer1" />
  <defs
     id="defs2" />
  <g
     inkscape:label="Layer 1"
     inkscape:groupmode="layer"
     id="layer1"
     transform="translate(-28.076582,-35.925199)">
    <g
       id="g1924"
       transform="matrix(0,-2.1860408,0.88975708,0,17.864591,215.83192)"
       style="fill-opacity:1;fill:#ffffff">
      <path
         id="rect1050-69"
         style="fill:#ffffff;stroke-width:34.8662;stroke-linecap:round;stroke-dashoffset:9.44882;fill-opacity:1"
         d="m 129.89648,0 a 150,299.99999 0 0 1 9.13672,37.427734 H 361.21094 A 150,299.99999 0 0 1 370.33594,0 Z m 14.05079,65.642578 a 150,299.99999 0 0 1 4.20117,37.427732 h 203.92773 a 150,299.99999 0 0 1 4.22071,-37.427732 z m 5.7539,65.644532 A 150,299.99999 0 0 1 150,150 150,299.99999 0 0 1 149.67578,168.71289 H 350.52539 A 150,299.99999 0 0 1 350,150 a 150,299.99999 0 0 1 0.52539,-18.71289 z m -1.54883,65.64258 a 150,299.99999 0 0 1 -4.25781,37.42773 h 212.40235 a 150,299.99999 0 0 1 -4.22071,-37.42773 z m -9.16406,65.64258 A 150,299.99999 0 0 1 129.9043,300 h 240.43164 a 150,299.99999 0 0 1 -9.125,-37.42773 z"
         transform="matrix(0.12103312,0,0,0.29736582,37.475056,11.47728)" />
    </g>
  </g>
</svg>
