<?xml version="1.0" encoding="UTF-8" standalone="no"?>
<!-- Created with Inkscape (http://www.inkscape.org/) -->

<svg
   width="7575.7607"
   height="1009.7236"
   viewBox="0 0 2004.42 267.15604"
   version="1.1"
   id="svg5"
   inkscape:version="1.1 (c68e22c387, 2021-05-23)"
   sodipodi:docname="WM - Music [White].svg"
   xmlns:inkscape="http://www.inkscape.org/namespaces/inkscape"
   xmlns:sodipodi="http://sodipodi.sourceforge.net/DTD/sodipodi-0.dtd"
   xmlns="http://www.w3.org/2000/svg"
   xmlns:svg="http://www.w3.org/2000/svg">
  <sodipodi:namedview
     id="namedview7"
     pagecolor="#505050"
     bordercolor="#ffffff"
     borderopacity="1"
     inkscape:pageshadow="0"
     inkscape:pageopacity="0"
     inkscape:pagecheckerboard="1"
     inkscape:document-units="px"
     showgrid="false"
     inkscape:zoom="0.21777344"
     inkscape:cx="3671.2466"
     inkscape:cy="1526.8161"
     inkscape:window-width="1920"
     inkscape:window-height="1137"
     inkscape:window-x="-8"
     inkscape:window-y="-8"
     inkscape:window-maximized="1"
     inkscape:current-layer="layer1" />
  <defs
     id="defs2" />
  <g
     inkscape:label="Layer 1"
     inkscape:groupmode="layer"
     id="layer1"
     transform="translate(599.9034,406.54897)">
    <path
       style="fill:#ffffff;stroke:none;stroke-width:0.264583;fill-opacity:1"
       d="m -478.19507,-241.36573 h -0.26458 l -3.3274,-16.66875 -9.06807,-36.5125 -19.92365,-73.55417 -9.22046,-34.13124 h -79.90417 c 1.53181,6.68173 3.82955,13.25035 5.70936,19.84374 4.17846,14.65554 8.42526,29.29308 12.69918,43.92084 13.0782,44.76088 25.93668,89.5903 38.81845,134.40833 6.2955,21.903 10.08486,49.01406 32.99593,59.87521 3.20278,1.5187 6.56828,2.72785 10.05416,3.41312 15.77578,3.09298 32.80013,-1.00012 44.1751,-12.75397 7.48585,-7.73563 12.24042,-17.67893 17.43578,-26.98644 25.34417,-45.4033 52.37559,-90.04697 74.64954,-137.05417 5.11386,12.28302 12.11765,24.03184 18.43907,35.71875 11.05403,20.43774 22.6613,40.56486 33.98547,60.85417 7.45596,13.35854 14.99658,26.67952 22.606,39.95208 4.67518,8.1571 8.82385,16.78252 14.8246,24.07708 12.4169,15.08654 33.37454,21.02115 51.96152,14.90398 28.0961,-9.24772 31.98548,-40.88606 39.34883,-65.43939 12.80848,-42.70428 25.25448,-85.52816 37.75604,-128.32292 4.38415,-15.00082 8.84767,-29.97808 13.22917,-44.97917 2.06904,-7.08178 4.74398,-14.20756 6.23888,-21.43124 h -57.15 -14.81667 l -5.6859,0.27193 -1.03981,2.63848 -2.00554,7.40834 -7.86077,29.10416 -21.60588,80.43333 -6.74952,27.25209 -2.94216,13.75833 c -2.88396,-4.94268 -4.98475,-10.45739 -7.47713,-15.61042 -4.08781,-8.44788 -8.39523,-16.79839 -12.7,-25.13542 -12.04118,-23.32884 -24.86289,-46.25551 -36.90408,-69.58541 -4.15925,-8.05921 -8.37406,-16.09989 -12.68677,-24.07708 -4.93183,-9.11913 -10.40871,-18.6059 -19.3966,-24.32738 -6.56246,-4.17743 -13.8012,-5.60078 -21.43125,-6.12338 -13.22282,-0.90567 -27.49736,0.0248 -37.83542,9.3292 -7.17471,6.45721 -11.69511,14.87025 -16.22134,23.23822 -5.37713,9.94146 -10.72541,19.9017 -15.99988,29.89792 -11.4001,21.60535 -22.65125,43.33822 -34.27095,64.82291 -4.08596,7.55518 -7.78351,15.33525 -11.62526,23.01876 -2.31696,4.63417 -5.37819,9.56865 -6.81382,14.55208 m 315.38333,97.36666 h 57.67917 14.81666 l 5.627687,-0.27252 1.063625,-2.90248 2.137833,-7.9375 8.072438,-29.89791 21.166666,-79.11042 6.492875,-26.72292 2.799291,-14.02291 h 0.264584 c 0.902229,3.13267 2.794,6.04044 4.151312,8.99583 3.786188,8.24601 8.109479,16.24145 12.186708,24.34167 12.427479,24.68139 25.8603747,48.85267 38.75352,73.28958 4.3815,8.30501 8.847667,16.56609 13.229167,24.87084 4.728104,8.95958 9.638771,18.42822 17.668875,24.92242 12.112624,9.79355 30.768395,10.46824 45.508332,7.50226 19.915187,-4.00579 28.643797,-22.73379 37.248047,-39.03927 15.27175,-28.9433 31.24993,-57.50956 45.89727,-86.78333 4.31535,-8.62727 8.71802,-17.20374 12.84023,-25.92917 1.86795,-3.95473 4.40266,-7.95866 5.61445,-12.17083 h 0.26459 c 2.0611,15.95728 7.1411,32.11697 11.33739,47.625 6.58284,24.34114 13.02015,48.72964 19.77231,73.025 2.73844,9.85705 5.33665,19.75749 8.00894,29.63333 0.66675,2.46724 1.34673,4.93501 1.98967,7.40833 0.2196,0.83873 0.35983,2.35215 1.1086,2.90248 1.16152,0.85461 4.27302,0.27252 5.67267,0.27252 h 15.34583 58.20833 c -1.75683,-7.66154 -4.3471,-15.19555 -6.50345,-22.75416 -4.02432,-14.11976 -8.05127,-28.24057 -12.17084,-42.33333 -11.34798,-38.83925 -21.89691,-77.92429 -33.5227,-116.68125 -3.58511,-11.94859 -6.87653,-23.99374 -10.3214,-35.98334 -3.8444,-13.37945 -7.86606,-26.28937 -19.23785,-35.33515 -17.02859,-13.54597 -44.91832,-12.49109 -60.58959,2.79527 -7.81314,7.62103 -12.69206,17.02392 -17.95462,26.45447 -6.65956,11.93059 -13.44877,23.78816 -20.10833,35.71875 -12.7688,22.87481 -25.99796,45.49669 -38.483651,68.52708 -4.079875,7.5274 -8.059208,15.09395 -11.890375,22.75417 -1.862666,3.72692 -4.333875,7.63217 -5.490104,11.64166 h -0.529167 c -1.076854,-3.73565 -3.487208,-7.37208 -5.22552,-10.84791 -3.831167,-7.65916 -7.818438,-15.22386 -11.890375,-22.75417 -13.522854,-25.00075 -27.76802,-49.61282 -41.775062,-74.34792 l -19.3145831,-34.13125 c -4.3815,-7.73932 -8.4534369,-15.9495 -14.9277909,-22.21457 -16.404167,-15.87455 -43.920833,-17.49695 -61.912499,-3.27401 -11.345333,8.96951 -15.282331,21.99794 -19.161121,35.27817 -3.532192,12.08749 -7.045852,24.18582 -10.662712,36.24791 -11.64696,38.82893 -22.94731,77.77004 -34.31646,116.68125 -4.38414,15.00082 -8.84766,29.97809 -13.22916,44.97917 -1.89971,6.49764 -4.19629,12.98072 -5.70971,19.57916 m 871.53748,-158.48541 h -0.26458 c 2.286,-5.30278 5.80231,-10.36505 8.72861,-15.34583 4.96887,-8.46006 9.82397,-16.98625 14.87222,-25.4 2.12196,-3.53669 4.23598,-7.07761 6.40821,-10.58334 1.08479,-1.74678 2.71727,-3.51922 3.18823,-5.55625 1.40494,-6.09097 -4.77573,-9.64909 -8.8556,-12.79234 -8.66775,-6.67781 -17.60273,-12.95717 -26.9875,-18.58732 -5.45836,-3.27435 -9.02494,-6.62551 -15.08125,-2.55333 -7.17286,4.82213 -13.47258,12.48111 -19.57917,18.58716 -10.04623,10.04702 -20.42318,19.80327 -30.69166,29.62301 -9.52236,9.10432 -19.4654,17.77762 -29.10417,26.75679 -23.53204,21.9194 -46.35235,44.68177 -69.58542,66.91603 1.31234,-8.92175 5.01915,-18.04061 7.48507,-26.72292 4.86039,-17.10319 9.66258,-34.22279 14.51239,-51.32916 1.89706,-6.69634 3.93171,-13.37284 5.6859,-20.10833 0.93133,-3.57955 2.28335,-6.65136 0.97102,-10.31875 -1.67746,-4.69556 -5.84729,-7.50835 -9.60438,-10.43094 -6.73629,-5.23927 -13.6472,-10.26689 -20.6375,-15.15956 -3.00302,-2.10278 -7.98777,-7.14177 -11.90625,-5.25918 -2.26218,1.08696 -3.71475,3.25901 -5.19906,5.18509 -2.38389,3.09325 -4.77044,6.18755 -7.18079,9.26042 -9.30275,11.86259 -18.51819,23.7961 -27.74421,35.71875 -28.48239,36.81333 -57.29552,73.37266 -85.92872,110.06667 -7.72848,9.90335 -15.5628,19.72389 -23.28334,29.63333 -4.04283,5.18848 -9.52764,10.61191 -11.09398,17.19792 -1.48166,6.23252 2.41829,8.96567 6.70719,12.74101 l 19.84375,17.46249 c 2.50296,2.20425 4.9186,4.73658 7.67292,6.62649 1.00541,0.69057 2.5347,1.397 3.66977,0.58209 1.30968,-0.94457 1.00541,-2.68288 1.2065,-4.07459 0.33602,-2.34791 0.90223,-4.1484 2.30716,-6.08541 7.55386,-10.41162 15.05215,-20.86637 22.68273,-31.22083 17.40429,-23.61327 34.50167,-47.50144 52.53038,-70.64375 6.09071,-7.81527 12.26873,-15.55221 18.46262,-23.28334 2.77548,-3.46392 6.64369,-6.90589 8.67833,-10.84792 h 0.26459 c -7.36336,26.12867 -13.21594,52.68728 -20.48404,78.84584 -2.25425,8.10789 -4.36563,16.25309 -6.69132,24.34167 -0.98425,3.42265 -3.3946,7.80653 -3.19616,11.37708 0.27781,4.97655 4.25979,7.5049 8.14652,9.71523 6.89504,3.92033 13.81389,7.83193 20.6375,11.87556 2.30716,1.36737 4.62227,2.7051 6.87916,4.15528 0.78317,0.50324 1.9103,1.46394 2.91042,1.25016 1.11654,-0.23839 1.97644,-1.53167 2.6035,-2.38998 1.70392,-2.33178 3.16442,-4.82653 4.90273,-7.14375 6.60929,-8.81116 13.58371,-17.07251 21.09258,-25.13542 17.17411,-18.44463 34.671,-36.55404 52.08852,-54.76875 12.40102,-12.96855 24.96344,-26.48267 38.90434,-37.83542 -13.07042,24.84253 -27.67542,48.87649 -40.55004,73.81876 -2.87603,5.57477 -5.9055,11.06249 -8.72861,16.66875 -2.23308,4.43732 -4.29948,8.61456 -3.55864,13.75833 0.66675,4.62042 4.36297,6.87334 7.85812,9.3718 6.58813,4.70985 13.34029,9.09902 20.37292,13.11752 2.51618,1.43827 5.11968,2.6834 7.67291,4.05103 0.77523,0.41275 2.14577,1.40494 2.9554,0.51329 0.63764,-0.70379 0.082,-2.33283 0.32279,-3.24114 0.70644,-2.69267 1.82563,-5.38136 2.921,-7.9375 3.52954,-8.24733 8.40052,-16.18668 12.66825,-24.07708 10.23144,-18.91956 20.70365,-37.71027 30.95625,-56.62084 3.0771,-5.67451 6.26004,-11.29717 9.40594,-16.93333 1.51077,-2.70801 3.59833,-5.50519 4.53496,-8.46667 h 0.26458 c -1.32292,4.59502 -4.11163,9.04055 -5.92667,13.49375 -4.42119,10.8638 -7.65175,22.31576 -6.46377,34.13125 0.99748,9.93908 5.34988,19.67812 10.62302,28.04584 4.40002,6.9842 9.525,14.31713 15.79034,19.76728 21.24868,18.48644 50.56981,21.84373 76.72916,13.3731 13.65515,-4.42198 25.41588,-12.68704 36.24792,-21.9165 11.18923,-9.53187 21.844,-19.90539 31.70502,-30.80305 5.9346,-6.55955 11.5861,-13.52576 17.77206,-19.84375 -1.60602,6.74688 -0.5715,14.85953 -0.0238,21.69583 0.5662,7.03765 1.84679,14.11632 4.6355,20.6375 5.62504,13.15826 16.8857,21.80008 29.51956,27.72304 27.09862,12.70265 55.85089,10.52248 83.87291,2.32728 10.50132,-3.07208 20.61632,-7.78193 30.16252,-13.08021 3.1406,-1.74254 6.2389,-3.56949 9.2604,-5.51153 1.0107,-0.64982 2.6644,-2.21166 3.892,-2.28045 0.852,-0.0476 1.6616,1.13771 2.1934,1.66979 l 5.0271,5.02708 c 5.2176,5.21653 10.4061,10.44363 15.875,15.39081 2.4739,2.23864 5.0879,5.10408 8.7313,4.71752 0.3095,-3.74861 4.1248,-7.17788 6.3182,-10.05416 5.6647,-7.42395 11.3586,-14.82805 17.0577,-22.225 14.8934,-19.32834 29.7365,-38.69505 44.7331,-57.94375 4.744,-6.08621 9.4589,-12.19438 14.2319,-18.25625 2.503,-3.17765 5.8129,-6.43229 7.6174,-10.05417 h 0.2646 c -4.6011,14.11473 -8.6784,28.89647 -7.6491,43.92084 0.6588,9.64115 3.6274,19.47042 7.4242,28.31041 1.8097,4.21164 4.4132,7.90972 6.6093,11.90625 3.847,6.99929 7.4665,13.65091 13.7239,18.93385 26.5218,22.38878 65.1298,18.84071 96.0438,9.56707 8.0777,-2.42385 15.7347,-5.34697 23.2833,-9.12098 8.4084,-4.20397 16.3883,-9.42499 23.5479,-15.52417 18.0737,-15.39742 31.1124,-36.3675 36.875,-59.41827 2.0135,-8.04465 4.5693,-18.71265 0.1667,-26.45833 -3.5216,2.69451 -6.3421,6.90854 -9.525,10.05311 -5.6965,5.62795 -11.946,10.83866 -18.2563,15.76387 -21.6297,16.8783 -45.6432,30.14319 -71.7021,38.82946 -8.4851,2.82892 -17.0841,5.64409 -25.9291,7.12099 -12.6974,2.12011 -26.3102,2.10053 -38.6292,-2.00554 -3.5375,-1.17898 -9.8981,-3.1496 -11.9221,-6.53706 -2.3866,-3.99124 -0.5636,-11.89857 0.336,-16.129 3.2438,-15.23206 10.9617,-28.95097 20.2195,-41.275 19.1161,-25.44895 44.659,-44.46825 72.5937,-59.20872 14.605,-7.70573 29.7153,-14.45789 45.5083,-19.36565 9.1811,-2.85353 18.5156,-3.88567 27.7813,-6.09229 -7.5936,6.4717 -16.5153,11.6242 -24.3417,17.88583 -2.7675,2.2143 -6.7495,4.51697 -8.6968,7.51813 -1.8389,2.83554 -0.4366,5.91397 1.5187,8.19812 3.72,4.34843 7.5221,8.63018 11.258,12.96458 1.3176,1.52638 3.7703,5.9182 5.9743,5.72955 2.0796,-0.17806 4.0322,-1.66237 5.8208,-2.61276 4.2677,-2.26748 8.464,-4.67783 12.7,-7.00458 14.6341,-8.03724 29.2153,-16.19355 43.6563,-24.57502 4.0798,-2.36776 8.1385,-4.75404 12.1708,-7.20223 2.5797,-1.56607 5.2493,-3.02313 6.5828,-5.87454 2.2093,-4.73049 -0.8943,-10.71007 -2.8416,-15.08125 -4.7757,-10.72409 -9.5224,-21.50798 -14.7876,-32.01458 -1.7753,-3.53827 -3.937,-9.91145 -7.2099,-12.19594 -4.0349,-2.81604 -11.93,-1.29781 -16.6687,-1.29781 -44.1325,0 -88.9159,16.64255 -127.2646,37.388 -8.5249,4.61222 -16.3803,10.18726 -24.6062,15.26408 3.5612,-4.38706 7.2469,-8.67278 10.9193,-12.96458 1.6801,-1.96109 3.8629,-4.04866 3.4581,-6.87917 -0.5979,-4.17856 -4.8233,-6.70004 -7.7629,-9.22602 -5.715,-4.91014 -11.5702,-9.68012 -17.4625,-14.37457 -2.3098,-1.8405 -5.3022,-5.13051 -8.202,-5.88513 -2.2622,-0.5892 -4.5932,0.82084 -6.35,2.08238 -4.8922,3.51358 -8.3476,9.46406 -12.0174,14.17417 -7.62,9.77874 -15.2294,19.56462 -22.815,29.36875 -17.534,22.65998 -35.0838,45.30328 -52.5727,67.99792 -8.8477,11.48424 -17.145,23.70031 -26.6304,34.66042 -0.9683,-7.66551 -1.6801,-14.93071 -5.3763,-21.96042 -5.6065,-10.65901 -15.1791,-18.90845 -25.0507,-25.48811 -16.0153,-10.67646 -34.0519,-18.71424 -51.85838,-25.89424 -7.54592,-3.04271 -15.13417,-5.94095 -22.75417,-8.79025 -3.86556,-1.44568 -8.07773,-3.51684 -12.17083,-4.12115 v -0.26458 c 6.46906,-1.33853 12.74762,-3.19405 19.31458,-4.16137 19.06588,-2.80882 38.7112,-3.02022 57.9438,-2.17831 10.0568,0.44053 20.1374,1.14855 30.1625,2.15106 5.3498,0.53499 10.7711,1.57691 16.1395,1.80737 -6.1065,3.47556 -12.8481,5.97244 -19.05,9.34217 -1.3017,0.70802 -5.789,3.67956 -2.8707,5.32289 1.6801,0.94641 4.5429,-0.0907 6.3103,-0.42969 4.7175,-0.90408 9.5197,-1.71556 14.2875,-2.28811 6.5299,-0.78396 13.0281,-1.42082 19.5792,-1.86955 4.1804,-0.28628 8.6254,0.24183 12.4354,-1.97167 3.1935,-1.85553 5.1118,-5.97694 6.6781,-9.16438 4.2413,-8.627 7.1093,-19.1127 8.6889,-28.575 0.6932,-4.15925 2.0849,-8.88153 -0.3889,-12.7 -3.1274,-4.83129 -9.6706,-6.23887 -14.9781,-6.95388 -8.7445,-1.17814 -17.4096,-2.55963 -26.1937,-3.40976 -30.3504,-2.93699 -61.1558,-1.14607 -91.2813,3.29176 -7.80256,1.14945 -15.58396,2.56365 -23.28333,4.27365 -3.937,0.87418 -7.92957,2.24102 -11.90625,2.84903 -2.07434,0.3175 -5.03238,-2.99852 -6.61459,-4.18544 -5.00062,-3.74975 -10.13883,-7.41727 -15.61041,-10.45419 -2.26219,-1.2551 -4.7625,-2.8716 -7.40834,-1.66772 -3.70681,1.68592 -6.23093,8.4151 -8.3132,11.75864 -6.36323,10.21688 -12.79261,20.41075 -19.46804,30.42708 -23.10872,34.68158 -47.25195,69.42614 -75.69466,100.0125 -21.20635,22.80417 -43.7806,45.02309 -71.94285,59.06743 -7.18873,3.58564 -15.02304,6.05896 -23.01875,6.85853 -2.86544,0.28655 -7.24429,0.67628 -9.779,-1.03108 -5.58536,-3.76052 -4.31006,-13.82633 -3.2385,-19.38655 3.37079,-17.46938 11.87714,-33.32294 20.955,-48.41875 17.96256,-29.87066 40.11877,-57.581 63.22218,-83.60833 5.75205,-6.48097 11.38502,-13.14979 17.47573,-19.31458 3.20411,-3.24168 7.19932,-6.88711 6.56432,-11.90625 -0.46832,-3.73142 -5.75734,-6.54579 -8.4164,-8.75268 -8.71802,-7.2362 -18.10279,-14.45218 -27.79183,-20.29127 -2.6035,-1.56837 -5.83142,0.84138 -7.66234,2.59604 -5.30225,5.08532 -9.65993,11.6645 -14.17637,17.45207 -13.88004,17.78874 -27.45846,35.84602 -40.15317,54.50417 -5.13027,7.53798 -11.90096,15.42627 -15.52046,23.8125 m 501.65006,-45.24375 -0.2646,0.26458 0.2646,-0.26458 m -284.41656,40.56221 c 1.89971,-0.0712 5.02708,2.75696 6.86858,3.50335 6.0669,2.45771 12.3878,4.32938 18.52084,6.62226 23.00552,8.60213 46.45025,16.71055 68.52714,27.56429 6.8394,3.36232 13.7054,6.66062 20.1083,10.83178 1.6827,1.09617 5.6145,3.25755 5.3657,5.63694 -0.2513,2.39739 -3.4977,4.894 -4.99,6.61459 -5.5351,6.38492 -12.1259,12.00176 -18.8965,17.03123 -28.72852,21.34049 -64.51606,29.98787 -99.74798,31.11156 -17.37783,0.55403 -35.54412,-7.42157 -45.41837,-21.94904 -2.31246,-3.40598 -4.24656,-7.20064 -5.5536,-11.1125 -0.3863,-1.15994 -1.2409,-3.00567 -0.94986,-4.23334 0.32809,-1.38297 1.89177,-2.64768 2.77548,-3.70416 2.19604,-2.62784 4.33917,-5.30146 6.52727,-7.9375 7.32631,-8.82782 14.49123,-17.84271 21.41802,-26.98751 6.27327,-8.28278 12.77938,-16.41342 18.81981,-24.87083 1.4658,-2.0529 3.02948,-4.03331 4.49792,-6.08541 0.49213,-0.68766 1.15623,-1.99946 2.12725,-2.03571 m -217.49808,4.68154 -1.05833,2.11667 h -0.26459 l 1.32292,-2.11667 m -1.32292,2.38125 -0.52916,0.52917 0.52916,-0.52917 m -0.52916,0.79375 -0.26459,0.26458 0.26459,-0.26458 m -0.26459,0.52917 -0.26458,0.26458 0.26458,-0.26458 m -66.41041,20.37291 -0.26458,0.26458 0.26458,-0.26458 m 48.41875,11.37708 -0.26458,0.26459 0.26458,-0.26459 m -0.26458,0.52917 -0.26459,0.26458 0.26459,-0.26458 m -0.26459,0.52917 -0.26458,0.26458 0.26458,-0.26458 m -0.26458,0.52916 -0.52917,1.32292 h -0.26458 l 0.79375,-1.32292 m -145.78542,14.02292 -0.26458,0.26459 z"
       id="path872" />
  </g>
</svg>
